<svg width="512" height="514" viewBox="0 0 512 514" fill="none" xmlns="http://www.w3.org/2000/svg">
<rect x="2" y="2" width="508" height="509.208" rx="58.3774" fill="#2972E8" stroke="#3D87FF" stroke-width="4"/>
<path d="M185.49 450.869C169.05 450.869 153.061 448.413 137.523 443.502C122.086 438.59 109.004 431.472 98.278 422.15L124.141 381.25C128.451 385.962 134.015 390.072 140.832 393.58C147.748 397.089 155.116 399.795 162.935 401.7C170.754 403.604 178.273 404.557 185.49 404.557C194.612 404.557 202.081 403.153 207.895 400.347C213.809 397.439 216.766 393.279 216.766 387.866C216.766 383.054 214.561 379.095 210.15 375.987C205.84 372.779 197.82 369.622 186.092 366.514L169.251 361.853C146.997 355.738 131.008 347.318 121.284 336.591C111.661 325.865 106.849 313.034 106.849 298.098C106.849 288.575 108.854 279.803 112.863 271.784C116.973 263.664 122.687 256.597 130.005 250.582C137.423 244.568 146.094 239.906 156.018 236.598C166.043 233.29 176.869 231.636 188.497 231.636C204.937 231.636 220.225 234.042 234.359 238.854C248.594 243.565 260.021 250.131 268.642 258.552L241.877 298.399C238.168 294.289 233.507 290.73 227.893 287.723C222.38 284.615 216.315 282.209 209.699 280.505C203.083 278.701 196.417 277.798 189.7 277.798C183.786 277.798 178.573 278.55 174.062 280.054C169.652 281.558 166.243 283.663 163.837 286.369C161.432 288.976 160.229 292.033 160.229 295.542C160.229 298.549 161.181 301.055 163.086 303.06C164.99 305.065 168.198 306.969 172.709 308.774C177.22 310.578 183.335 312.583 191.054 314.788L207.895 319.75C230.049 326.266 246.037 334.386 255.861 344.11C265.685 353.833 270.597 366.364 270.597 381.701C270.597 395.334 267.089 407.364 260.072 417.789C253.155 428.214 243.281 436.334 230.45 442.148C217.719 447.962 202.732 450.869 185.49 450.869ZM303.4 446.358V235.846H455.42V283.663H358.735V316.894H438.88V360.8H358.735V397.941H456.623V446.358H303.4Z" fill="white"/>
</svg>
